HIERARCHY
ROOT SpineBase
{
  OFFSET 0.000000 0.000000 0.000000
  CHANNELS 6 Xposition Yposition Zposition Zrotation Xrotation Yrotation
  JOINT SpineMid
  {
    OFFSET 0.000000 19.157243 0.000000
    CHANNELS 3 Zrotation Xrotation Yrotation
    JOINT SpineShoulder
    {
      OFFSET -0.070995 14.342267 -0.310755
      CHANNELS 3 Zrotation Xrotation Yrotation
      JOINT Neck
      {
        OFFSET 0.095034 4.739660 -0.446456
        CHANNELS 3 Zrotation Xrotation Yrotation
        JOINT Head
        {
          OFFSET 0.386585 10.634808 -7.349297
          CHANNELS 3 Zrotation Xrotation Yrotation
          End Site
          {
            OFFSET 0 0 0
          }
        }
      }
      JOINT ShoulderLeft
      {
        OFFSET -8.868032 0.025601 6.872902
        CHANNELS 3 Zrotation Xrotation Yrotation
        JOINT ElbowLeft
        {
          OFFSET -7.495726 -15.660374 -5.163034
          CHANNELS 3 Zrotation Xrotation Yrotation
          JOINT WristLeft
          {
            OFFSET -7.548030 -5.250881 -23.090661
            CHANNELS 3 Zrotation Xrotation Yrotation
            JOINT HandLeft
            {
              OFFSET -6.430401 0.813981 -5.553216
              CHANNELS 3 Zrotation Xrotation Yrotation
              JOINT HandTipLeft
              {
                OFFSET 0.466539 1.147187 -2.708254
                CHANNELS 3 Zrotation Xrotation Yrotation
                End Site
                {
                  OFFSET 0 0 0
                }
              }
              JOINT ThumbLeft
              {
                OFFSET 1.034773 -0.404228 -2.726592
                CHANNELS 3 Zrotation Xrotation Yrotation
                End Site
                {
                  OFFSET 0 0 0
                }
              }
            }
          }
        }
      }
      JOINT ShoulderRight
      {
        OFFSET 12.293021 -1.339933 -11.109856
        CHANNELS 3 Zrotation Xrotation Yrotation
        JOINT ElbowRight
        {
          OFFSET 2.635199 -18.738948 -1.200152
          CHANNELS 3 Zrotation Xrotation Yrotation
          JOINT WristRight
          {
            OFFSET -5.120413 -18.047263 -12.007855
            CHANNELS 3 Zrotation Xrotation Yrotation
            JOINT HandRight
            {
              OFFSET -4.589677 -4.828556 1.642482
              CHANNELS 3 Zrotation Xrotation Yrotation
              JOINT HandTipRight
              {
                OFFSET -2.465494 -4.261674 -1.216830
                CHANNELS 3 Zrotation Xrotation Yrotation
                End Site
                {
                  OFFSET 0 0 0
                }
              }
              JOINT ThumbRight
              {
                OFFSET 3.047673 -2.698967 2.164537
                CHANNELS 3 Zrotation Xrotation Yrotation
                End Site
                {
                  OFFSET 0 0 0
                }
              }
            }
          }
        }
      }
    }
  }
  JOINT HipLeft
  {
    OFFSET -5.277656 0.304234 0.974624
    CHANNELS 3 Zrotation Xrotation Yrotation
    JOINT KneeLeft
    {
      OFFSET -8.712854 -3.969661 -25.102544
      CHANNELS 3 Zrotation Xrotation Yrotation
      JOINT AnkleLeft
      {
        OFFSET 3.596867 -38.928292 9.074069
        CHANNELS 3 Zrotation Xrotation Yrotation
        JOINT FootLeft
        {
          OFFSET -3.648877 -7.446998 -2.947463
          CHANNELS 3 Zrotation Xrotation Yrotation
          End Site
          {
            OFFSET 0 0 0
          }
        }
      }
    }
  }
  JOINT HipRight
  {
    OFFSET 4.684527 0.531863 -5.954075
    CHANNELS 3 Zrotation Xrotation Yrotation
    JOINT KneeRight
    {
      OFFSET -21.660813 -13.518080 -20.580449
      CHANNELS 3 Zrotation Xrotation Yrotation
      JOINT AnkleRight
      {
        OFFSET 8.107121 -30.418334 12.143143
        CHANNELS 3 Zrotation Xrotation Yrotation
        JOINT FootRight
        {
          OFFSET -6.343228 -5.408595 -4.442172
          CHANNELS 3 Zrotation Xrotation Yrotation
          End Site
          {
            OFFSET 0 0 0
          }
        }
      }
    }
  }
}
MOTION
Frames: 14
Frame Time: 0.033333
46.020790 52.047965 388.569591 -0.000000 0.000000 34.818614 -0.000000 0.000000 -34.818614 -0.000000 0.000000 0.000000 -0.000000 0.000000 0.000000 0.000000 0.000000 0.000000 -0.000000 0.000000 0.000000 -0.000000 0.000000 0.000000 -0.000000 0.000000 0.000000 -0.000000 0.000000 0.000000 0.000000 0.000000 0.000000 0.000000 0.000000 0.000000 -0.000000 0.000000 0.000000 -0.000000 0.000000 0.000000 -0.000000 0.000000 0.000000 -0.000000 0.000000 0.000000 0.000000 0.000000 0.000000 0.000000 0.000000 0.000000 -0.000000 0.000000 -34.818614 -0.000000 0.000000 0.000000 -0.000000 0.000000 0.000000 0.000000 0.000000 0.000000 -0.000000 0.000000 -34.818614 -0.000000 0.000000 0.000000 -0.000000 0.000000 0.000000 0.000000 0.000000 0.000000
46.085160 52.065996 388.422566 -0.044239 0.085485 34.893251 -0.012616 -0.095423 -34.893228 0.981699 1.123725 0.060381 -0.983071 -1.122524 -0.079639 0.000000 0.000000 0.000000 -2.787029 2.496603 -1.173249 3.254581 -6.842268 0.161425 -4.715346 6.156068 3.307568 5.180425 -6.258365 4.257340 0.000000 0.000000 0.000000 0.000000 0.000000 0.000000 -0.983071 -1.122524 -0.079639 -0.429354 0.737867 0.078666 -0.488148 -0.135463 -0.959018 -1.456006 -1.595412 2.073059 0.000000 0.000000 0.000000 0.000000 0.000000 0.000000 -0.012616 -0.095423 -34.893228 -0.000000 0.000000 0.000000 -0.000000 0.000000 0.000000 0.000000 0.000000 0.000000 -0.012616 -0.095423 -34.893228 -0.939492 0.226296 -0.313822 3.081572 -1.852796 0.540434 0.000000 0.000000 0.000000
46.146390 52.091337 388.285137 -0.021612 0.234405 34.970277 -0.116640 -0.204470 -34.970441 1.864957 2.117463 0.098961 -3.176895 -2.063306 -1.119825 0.000000 0.000000 0.000000 -5.011860 4.381611 -2.107230 6.073365 -12.404163 0.360671 -8.701039 10.851903 6.771896 9.497562 -10.826471 8.517334 0.000000 0.000000 0.000000 0.000000 0.000000 0.000000 -1.869882 -2.113115 -0.167918 -0.792727 1.311823 0.162761 -0.986403 -0.073684 -1.926021 -2.560626 -2.993611 3.817195 0.000000 0.000000 0.000000 0.000000 0.000000 0.000000 -0.116640 -0.204470 -34.970441 -0.000000 0.000000 0.000000 0.947842 -0.141269 -0.306159 0.000000 0.000000 0.000000 -0.116640 -0.204470 -34.970441 -1.749106 0.417373 -0.583915 5.762170 -3.416401 1.081100 0.000000 0.000000 0.000000
46.204480 52.123986 388.157304 0.068010 0.446997 35.049660 0.750862 0.057192 -35.029651 1.997958 2.053987 0.140144 -4.712854 -2.986101 -1.781322 0.000000 0.000000 0.000000 -6.704396 5.626242 -2.820310 8.335169 -16.617716 0.452684 -11.918570 14.199051 10.111626 12.857630 -13.564114 12.085531 0.000000 0.000000 0.000000 0.000000 0.000000 0.000000 -2.658696 -2.970084 -0.259102 -1.090329 1.722653 0.249904 -1.450614 0.162377 -2.861864 -3.386478 -4.135925 5.232126 0.000000 0.000000 0.000000 0.000000 0.000000 0.000000 -0.312385 -0.326877 -35.050816 -0.000000 0.000000 0.000000 1.226052 -0.055323 -0.460078 0.000000 0.000000 0.000000 0.055736 -1.096063 -35.514699 -3.187009 0.964911 -0.325482 8.012825 -4.683565 1.590223 0.000000 0.000000 0.000000
46.259431 52.163944 388.039067 0.224884 0.723605 35.131140 0.915978 0.045527 -35.102547 2.382427 2.419088 0.169641 -6.208155 -3.841605 -2.497597 0.000000 0.000000 0.000000 -7.895545 6.224972 -3.324344 9.917616 -19.464631 0.304010 -14.306873 16.336077 13.115160 15.154959 -14.535925 14.455888 0.000000 0.000000 0.000000 0.000000 0.000000 0.000000 -2.537105 -4.089126 -0.400079 -2.138282 2.358516 0.457166 -1.834006 0.542499 -3.722373 -4.012291 -4.966173 6.308320 0.000000 0.000000 0.000000 0.000000 0.000000 0.000000 -0.600333 -0.462366 -35.134982 -0.000000 0.000000 0.000000 1.373628 0.135552 -0.615059 0.000000 0.000000 0.000000 -0.113756 -1.543640 -35.724468 -4.038691 1.254500 -0.372480 9.810298 -5.653075 2.040326 0.000000 0.000000 0.000000
46.311241 52.211211 387.930425 0.449389 1.064664 35.214232 1.038147 0.018585 -35.176998 2.624626 2.622066 0.195959 -7.655723 -4.633151 -3.256505 0.000000 0.000000 0.000000 -8.609783 6.179916 -3.622044 10.723085 -20.949317 -0.188065 -15.814770 17.400231 15.642454 16.378778 -13.914962 15.369440 0.000000 0.000000 0.000000 0.000000 0.000000 0.000000 -2.914258 -4.607512 -0.461639 -2.514478 2.370807 0.548302 -2.092271 1.031630 -4.462662 -4.513356 -5.429999 7.027509 0.000000 0.000000 0.000000 0.000000 0.000000 0.000000 -0.981121 -0.610636 -35.223636 -0.000000 0.000000 0.000000 1.391041 0.431304 -0.770582 0.000000 0.000000 0.000000 -0.378259 -2.032163 -35.924313 -4.792932 1.529902 -0.392617 11.137041 -6.327387 2.409505 0.000000 0.000000 0.000000
46.357539 52.261174 387.829826 0.848445 1.653211 35.309731 1.412324 0.090306 -35.258956 2.792038 2.749226 0.235405 -9.784370 -6.787397 -4.416216 0.000000 0.000000 0.000000 -9.008730 5.408985 -4.051848 11.446531 -22.939828 -2.282015 -19.579925 18.977973 24.076031 16.499654 -10.996676 8.448631 0.000000 0.000000 0.000000 0.000000 0.000000 0.000000 -3.428188 -5.442928 -0.545892 -2.967191 2.001227 0.687168 -3.322991 2.027762 -5.688016 -3.936451 -4.693316 7.508486 0.000000 0.000000 0.000000 0.000000 0.000000 0.000000 -1.648064 -0.858402 -35.334319 -0.000000 0.000000 0.000000 1.061122 0.863518 -0.852416 0.000000 0.000000 0.000000 -0.814375 -2.943100 -36.263951 -5.706788 1.636662 -0.320264 12.369884 -6.366150 2.329381 0.000000 0.000000 0.000000
46.393752 52.325536 387.749323 1.291869 2.278200 35.342286 1.621552 0.063300 -35.282371 2.757392 2.627924 0.270637 -12.682291 -8.468509 -6.352550 0.000000 0.000000 0.000000 -8.755512 3.709654 -4.003544 10.177158 -21.322417 -3.457891 -18.579547 17.808305 24.499408 14.298102 -14.126400 6.288811 0.000000 0.000000 0.000000 0.000000 0.000000 0.000000 -3.828304 -5.714522 -0.582343 -3.111499 1.066536 0.769087 -3.267617 3.746772 -6.750239 -2.958736 -7.132430 8.953890 0.000000 0.000000 0.000000 0.000000 0.000000 0.000000 -2.626492 -1.639927 -34.731855 -0.092663 0.580282 -0.664743 0.553237 1.505297 -0.961098 0.000000 0.000000 0.000000 -1.392881 -3.560255 -36.488169 -6.348504 1.860494 -0.220994 12.467491 -6.333396 2.560679 0.000000 0.000000 0.000000
46.423352 52.405956 387.677730 1.713871 2.799301 35.445138 1.607941 -0.031394 -35.383371 2.553072 2.315839 0.293801 -13.917746 -8.924206 -7.173817 0.000000 0.000000 0.000000 -8.151920 1.375609 -3.373288 7.850901 -16.969468 -3.819708 -14.151462 14.687418 19.750246 16.922972 4.428115 12.174158 0.000000 0.000000 0.000000 0.000000 0.000000 0.000000 -3.863516 -5.536518 -0.573691 -3.306685 0.339446 0.824799 -2.307705 4.166667 -6.575376 -3.438777 -6.514383 8.206365 0.000000 0.000000 0.000000 0.000000 0.000000 0.000000 -3.347764 -2.001355 -34.744471 -0.139197 0.775310 -0.784872 0.454986 1.973943 -1.149566 0.000000 0.000000 0.000000 -1.964044 -4.044959 -36.667915 -6.691551 2.078496 -0.165638 12.801523 -6.459000 2.549347 0.000000 0.000000 0.000000
46.456719 52.475922 387.636936 2.079584 3.087759 35.540098 1.371013 -0.205975 -35.481533 2.207347 1.818023 0.305105 -14.016815 -7.795722 -7.238161 0.000000 0.000000 0.000000 -7.277882 -1.261405 -2.188036 5.902715 -12.024757 -5.805693 -11.614706 11.841862 18.173641 11.642490 2.077764 2.741440 0.000000 0.000000 0.000000 0.000000 0.000000 0.000000 -3.709925 -4.971908 -0.551817 -3.299160 0.139659 0.793849 -2.048825 2.922919 -5.206099 -1.306552 -6.001604 7.005585 0.000000 0.000000 0.000000 0.000000 0.000000 0.000000 -3.951317 -2.427702 -34.754819 -0.261272 1.189718 -0.893326 0.106082 2.709051 -1.359948 0.000000 0.000000 0.000000 -2.435097 -4.333170 -36.671123 -6.878306 2.500482 -0.200301 11.278744 -5.810268 2.585363 0.000000 0.000000 0.000000
46.505470 52.535205 387.606571 2.172928 3.054807 35.607509 0.361137 -0.411607 -35.574412 1.518782 1.063997 0.245518 -11.143756 -4.729526 -5.670585 0.000000 0.000000 0.000000 -4.621725 -4.772910 0.011118 3.519655 -4.754612 -8.543530 -8.887333 8.426393 15.066007 2.526809 -8.725825 -6.492662 0.000000 0.000000 0.000000 0.000000 0.000000 0.000000 -2.541110 -3.528170 -0.399870 -2.914337 0.348369 0.610441 -0.570255 1.246857 -3.089968 -4.151996 -2.674378 4.254957 0.000000 0.000000 0.000000 0.000000 0.000000 0.000000 -4.101034 -2.602080 -34.720243 -0.333182 1.455478 -0.997117 -0.014061 3.377743 -1.630290 0.000000 0.000000 0.000000 -2.602065 -4.423374 -36.426447 -6.761423 2.941375 -0.389216 10.246379 -5.446190 2.423109 0.000000 0.000000 0.000000
46.566674 52.587531 387.578242 2.211333 2.918183 35.605852 0.127186 -0.424563 -35.578915 1.577901 1.097420 0.244152 -10.169603 -4.007532 -4.967429 0.000000 0.000000 0.000000 -5.526438 -2.883091 -0.474717 4.918852 -7.647761 -8.047222 -8.939255 9.345165 15.257256 -0.611517 -12.282659 -9.870100 0.000000 0.000000 0.000000 0.000000 0.000000 0.000000 -2.460962 -3.212703 -0.383792 -2.993124 0.544224 0.583348 0.039016 0.610561 -2.560829 -4.858224 -1.234198 3.241498 0.000000 0.000000 0.000000 0.000000 0.000000 0.000000 -4.133497 -2.681862 -34.573131 -0.383595 1.677628 -1.137395 -0.372751 3.981224 -1.763800 0.000000 0.000000 0.000000 -2.686995 -4.387180 -36.074304 -6.358858 3.279412 -0.563252 8.908232 -5.190345 2.473152 0.000000 0.000000 0.000000
46.620223 52.619018 387.603694 2.287730 2.833228 35.525308 0.017730 -0.327125 -35.504894 1.500076 1.009802 0.236934 -9.676914 -3.535721 -4.679835 0.000000 0.000000 0.000000 -5.335399 -3.264614 -0.213759 4.856203 -7.229437 -8.286039 -8.703845 9.249515 14.314523 -0.751071 -10.065590 -10.384914 0.000000 0.000000 0.000000 0.000000 0.000000 0.000000 -2.315297 -3.219011 -0.387723 -3.060158 0.895324 0.605886 -0.125560 -0.859067 -1.429784 -4.509672 0.704968 1.892181 0.000000 0.000000 0.000000 0.000000 0.000000 0.000000 -4.216128 -2.787137 -34.397208 -0.440274 1.895634 -1.230462 -0.382520 4.312228 -1.916232 0.000000 0.000000 0.000000 -2.872444 -4.291290 -35.579060 -6.120564 3.789435 -0.843114 8.091612 -5.263838 2.575987 0.000000 0.000000 0.000000
46.617419 52.624020 387.699594 2.277606 2.540100 35.390390 -0.014574 -0.242802 -35.370258 1.413771 0.896599 0.231164 -9.176298 -3.210928 -4.377527 0.000000 0.000000 0.000000 -5.292401 -2.542929 -0.311540 5.078135 -7.848034 -8.117416 -9.198777 9.706450 14.353637 1.887041 -8.372402 -6.551042 0.000000 0.000000 0.000000 0.000000 0.000000 0.000000 -2.222390 -2.935783 -0.380067 -3.023385 1.113251 0.603692 -1.336662 -1.039180 -1.811391 -3.532149 0.502350 2.464365 0.000000 0.000000 0.000000 0.000000 0.000000 0.000000 -4.077017 -2.752255 -34.296578 -0.509522 2.076340 -1.179755 -0.441367 4.669510 -2.059205 0.000000 0.000000 0.000000 -2.721234 -4.137925 -35.312755 -6.201583 3.999899 -0.948157 7.725579 -4.607529 1.917792 0.000000 0.000000 0.000000
